<svg xmlns="http://www.w3.org/2000/svg" xmlns:xlink="http://www.w3.org/1999/xlink" width="407" height="407" viewBox="0 0 407 407"><defs><path id="a" d="M0 0h407.43v407.429H0z"/></defs><clipPath id="b"><use xlink:href="#a" overflow="visible"/></clipPath><path clip-path="url(#b)" fill="#71AC34" d="M407.43 203.714c0 112.508-91.207 203.715-203.715 203.715S0 316.222 0 203.714C0 91.207 91.207 0 203.715 0S407.43 91.207 407.43 203.714"/><path clip-path="url(#b)" fill="#FCFCFD" d="M312.219 43.945H95.211c-8.949 0-16.273 7.324-16.273 16.273v286.719c0 8.953 7.324 16.277 16.273 16.277h216.734c8.953 0 16.277-7.324 16.277-16.277V60.218c.27-8.949-7.054-16.273-16.003-16.273"/><path clip-path="url(#b)" fill="#6EB1E1" d="M216.465 150.546c14.375-5.152 24.414-18.714 24.414-34.992a37.046 37.046 0 0 0-37.164-37.16 37.043 37.043 0 0 0-37.16 37.16c0 16.004 10.304 29.84 24.41 34.992-31.735 5.7-56.149 33.094-57.235 66.461h139.7c-.817-33.367-25.227-60.761-56.965-66.461"/><path clip-path="url(#b)" fill="#F1F3F7" d="M133.73 243.863h139.699v13.289H133.73zm0 35.805h139.699v13.293H133.73zm0 35.804h96.027v13.293H133.73z"/></svg>