<svg xmlns="http://www.w3.org/2000/svg" xmlns:xlink="http://www.w3.org/1999/xlink" width="407" height="407" viewBox="0 0 407 407"><defs><path id="a" d="M0 0h407.43v407.429H0z"/></defs><clipPath id="b"><use xlink:href="#a" overflow="visible"/></clipPath><path clip-path="url(#b)" fill="#FBD303" d="M407.43 203.714c0 112.508-91.207 203.715-203.715 203.715S0 316.222 0 203.714C0 91.207 91.207 0 203.715 0S407.43 91.207 407.43 203.714"/><path clip-path="url(#b)" fill="#FFF" d="M241.691 54.523H72.426c-4.614 0-8.41 3.797-8.41 8.41v281.024c0 4.608 3.796 8.405 8.41 8.405h169.266c4.609 0 8.406-3.797 8.406-8.405V63.203c.004-4.883-3.797-8.68-8.407-8.68"/><path clip-path="url(#b)" fill="#6EB1E1" d="M69.715 80.019h174.961v235.453H69.715z"/><path clip-path="url(#b)" fill="#DEDEDF" d="M169.266 66.457h-24.141c-1.086 0-2.172.816-2.172 2.172 0 1.085.813 2.171 2.172 2.171h24.141c1.082 0 2.168-.816 2.168-2.171-.27-1.356-1.082-2.172-2.168-2.172m.269 267.191c0 6.892-5.586 12.478-12.476 12.478-6.891 0-12.477-5.586-12.477-12.478 0-6.891 5.586-12.477 12.477-12.477 6.89 0 12.476 5.586 12.476 12.477"/><path clip-path="url(#b)" fill="#71AC34" d="M369.727 127.761H250.102v126.95h119.625c7.051 0 13.02-5.696 13.02-13.021V140.78c-.001-7.319-5.7-13.019-13.02-13.019"/><path clip-path="url(#b)" fill="#4F5565" d="M250.102 150.004h132.646v41.234H250.102z"/><path clip-path="url(#b)" fill="#90D342" d="M250.102 220.804h66.188v10.035h-66.188zm87.613 0h17.906v10.035h-17.906z"/><path clip-path="url(#b)" fill="#5FA7D3" d="M86.262 98.464h141.594v13.023H86.262zm0 30.926H209.14v13.02H86.262zm0 30.653h73.508v13.02H86.262z"/></svg>