<svg xmlns="http://www.w3.org/2000/svg" xmlns:xlink="http://www.w3.org/1999/xlink" width="407" height="407" viewBox="0 0 407 407"><defs><path id="a" d="M0 0h407.43v407.429H0z"/></defs><clipPath id="b"><use xlink:href="#a" overflow="visible"/></clipPath><path clip-path="url(#b)" fill="#3677A8" d="M407.43 203.714c0 112.508-91.207 203.715-203.715 203.715S0 316.222 0 203.714C0 91.207 91.207 0 203.715 0S407.43 91.207 407.43 203.714"/><path clip-path="url(#b)" fill="#F1F3F7" d="M364.027 49.64H43.402A21.881 21.881 0 0 0 21.43 71.613v222.703a21.882 21.882 0 0 0 21.972 21.974h320.356a21.883 21.883 0 0 0 21.973-21.974V71.613c.269-12.207-9.766-21.973-21.704-21.973"/><path clip-path="url(#b)" fill="#FCFCFD" d="M43.402 103.621h320.625V293.23H43.402z"/><path clip-path="url(#b)" fill="#F0582F" d="M364.027 78.121a7.053 7.053 0 1 1-14.106.002 7.053 7.053 0 0 1 14.106-.002"/><path clip-path="url(#b)" fill="#FBD303" d="M339.344 78.121a7.053 7.053 0 1 1-14.106.002 7.053 7.053 0 0 1 14.106-.002"/><path clip-path="url(#b)" fill="#6EB1E1" d="M314.66 78.121a7.054 7.054 0 1 1-14.106 0 7.05 7.05 0 0 1 7.051-7.051 7.05 7.05 0 0 1 7.055 7.051m-2.441 167.367l-20.887-5.694a88.16 88.16 0 0 0-10.309-24.957l10.852-18.715c1.082-2.172.813-4.883-.816-6.512l-15.461-15.461c-1.625-1.629-4.34-2.172-6.508-.816l-18.719 10.851a88.183 88.183 0 0 0-24.957-10.308l-5.695-20.887c-.543-2.442-2.715-4.067-5.152-4.067h-21.973c-2.442 0-4.614 1.625-5.156 4.067l-5.696 20.887a88.28 88.28 0 0 0-24.957 10.308l-18.715-10.851c-2.172-1.082-4.882-.813-6.511.816l-15.461 15.461c-1.629 1.625-2.172 4.34-.813 6.512l10.848 18.715a88.036 88.036 0 0 0-10.305 24.957l-20.89 5.694c-2.442.543-4.067 2.716-4.067 5.152v21.973c0 2.441 1.625 4.613 4.067 5.156l20.89 5.695a88.145 88.145 0 0 0 10.305 24.957l-10.848 18.715c-1.086 2.172-.816 4.883.813 6.512l15.461 15.461c1.629 1.629 4.339 2.172 6.511.813l18.715-10.848a88.14 88.14 0 0 0 24.957 10.306l5.696 20.89c.542 2.442 2.714 4.067 5.156 4.067h21.973c2.441 0 4.609-1.625 5.152-4.067l5.695-20.89a88.063 88.063 0 0 0 24.957-10.306l18.719 10.848c2.168 1.086 4.879.816 6.508-.813l15.461-15.461c1.629-1.629 2.172-4.34.816-6.512l-10.852-18.715a88.25 88.25 0 0 0 10.309-24.957l20.887-5.695c2.441-.543 4.07-2.715 4.07-5.156V250.64c0-2.168-1.629-4.34-4.07-5.152m-108.504 56.423c-22.242 0-40.145-17.903-40.145-40.146 0-22.246 17.903-40.147 40.145-40.147 22.242 0 40.148 17.901 40.148 40.147 0 22.242-17.906 40.146-40.148 40.146"/></svg>