<svg xmlns="http://www.w3.org/2000/svg" xmlns:xlink="http://www.w3.org/1999/xlink" height="520" viewBox="0 0 176 520" width="176"><svg height="168" viewBox="0 0 407 407" width="168" x="4" y="4"><defs><path id="a" d="M0 0h407.43v407.429H0z"/></defs><clipPath id="b"><use xlink:href="#a" overflow="visible"/></clipPath><path clip-path="url(#b)" fill="#71AC34" d="M407.43 203.714c0 112.508-91.207 203.715-203.715 203.715S0 316.222 0 203.714C0 91.207 91.207 0 203.715 0S407.43 91.207 407.43 203.714"/><path clip-path="url(#b)" fill="#FCFCFD" d="M312.219 43.945H95.211c-8.949 0-16.273 7.324-16.273 16.273v286.719c0 8.953 7.324 16.277 16.273 16.277h216.734c8.953 0 16.277-7.324 16.277-16.277V60.218c.27-8.949-7.054-16.273-16.003-16.273"/><path clip-path="url(#b)" fill="#6EB1E1" d="M216.465 150.546c14.375-5.152 24.414-18.714 24.414-34.992a37.046 37.046 0 0 0-37.164-37.16 37.043 37.043 0 0 0-37.16 37.16c0 16.004 10.304 29.84 24.41 34.992-31.735 5.7-56.149 33.094-57.235 66.461h139.7c-.817-33.367-25.227-60.761-56.965-66.461"/><path clip-path="url(#b)" fill="#F1F3F7" d="M133.73 243.863h139.699v13.289H133.73zm0 35.805h139.699v13.293H133.73zm0 35.804h96.027v13.293H133.73z"/></svg><svg height="168" viewBox="0 0 407 407" width="168" x="4" y="176"><path clip-path="url(#b)" fill="#FBD303" d="M407.43 203.714c0 112.508-91.207 203.715-203.715 203.715S0 316.222 0 203.714C0 91.207 91.207 0 203.715 0S407.43 91.207 407.43 203.714"/><path clip-path="url(#b)" fill="#FFF" d="M241.691 54.523H72.426c-4.614 0-8.41 3.797-8.41 8.41v281.024c0 4.608 3.796 8.405 8.41 8.405h169.266c4.609 0 8.406-3.797 8.406-8.405V63.203c.004-4.883-3.797-8.68-8.407-8.68"/><path clip-path="url(#b)" fill="#6EB1E1" d="M69.715 80.019h174.961v235.453H69.715z"/><path clip-path="url(#b)" fill="#DEDEDF" d="M169.266 66.457h-24.141c-1.086 0-2.172.816-2.172 2.172 0 1.085.813 2.171 2.172 2.171h24.141c1.082 0 2.168-.816 2.168-2.171-.27-1.356-1.082-2.172-2.168-2.172m.269 267.191c0 6.892-5.586 12.478-12.476 12.478-6.891 0-12.477-5.586-12.477-12.478 0-6.891 5.586-12.477 12.477-12.477 6.89 0 12.476 5.586 12.476 12.477"/><path clip-path="url(#b)" fill="#71AC34" d="M369.727 127.761H250.102v126.95h119.625c7.051 0 13.02-5.696 13.02-13.021V140.78c-.001-7.319-5.7-13.019-13.02-13.019"/><path clip-path="url(#b)" fill="#4F5565" d="M250.102 150.004h132.646v41.234H250.102z"/><path clip-path="url(#b)" fill="#90D342" d="M250.102 220.804h66.188v10.035h-66.188zm87.613 0h17.906v10.035h-17.906z"/><path clip-path="url(#b)" fill="#5FA7D3" d="M86.262 98.464h141.594v13.023H86.262zm0 30.926H209.14v13.02H86.262zm0 30.653h73.508v13.02H86.262z"/></svg><svg height="168" viewBox="0 0 407 407" width="168" x="4" y="348"><path clip-path="url(#b)" fill="#3677A8" d="M407.43 203.714c0 112.508-91.207 203.715-203.715 203.715S0 316.222 0 203.714C0 91.207 91.207 0 203.715 0S407.43 91.207 407.43 203.714"/><path clip-path="url(#b)" fill="#F1F3F7" d="M364.027 49.64H43.402A21.881 21.881 0 0 0 21.43 71.613v222.703a21.882 21.882 0 0 0 21.972 21.974h320.356a21.883 21.883 0 0 0 21.973-21.974V71.613c.269-12.207-9.766-21.973-21.704-21.973"/><path clip-path="url(#b)" fill="#FCFCFD" d="M43.402 103.621h320.625V293.23H43.402z"/><path clip-path="url(#b)" fill="#F0582F" d="M364.027 78.121a7.053 7.053 0 1 1-14.106.002 7.053 7.053 0 0 1 14.106-.002"/><path clip-path="url(#b)" fill="#FBD303" d="M339.344 78.121a7.053 7.053 0 1 1-14.106.002 7.053 7.053 0 0 1 14.106-.002"/><path clip-path="url(#b)" fill="#6EB1E1" d="M314.66 78.121a7.054 7.054 0 1 1-14.106 0 7.05 7.05 0 0 1 7.051-7.051 7.05 7.05 0 0 1 7.055 7.051m-2.441 167.367l-20.887-5.694a88.16 88.16 0 0 0-10.309-24.957l10.852-18.715c1.082-2.172.813-4.883-.816-6.512l-15.461-15.461c-1.625-1.629-4.34-2.172-6.508-.816l-18.719 10.851a88.183 88.183 0 0 0-24.957-10.308l-5.695-20.887c-.543-2.442-2.715-4.067-5.152-4.067h-21.973c-2.442 0-4.614 1.625-5.156 4.067l-5.696 20.887a88.28 88.28 0 0 0-24.957 10.308l-18.715-10.851c-2.172-1.082-4.882-.813-6.511.816l-15.461 15.461c-1.629 1.625-2.172 4.34-.813 6.512l10.848 18.715a88.036 88.036 0 0 0-10.305 24.957l-20.89 5.694c-2.442.543-4.067 2.716-4.067 5.152v21.973c0 2.441 1.625 4.613 4.067 5.156l20.89 5.695a88.145 88.145 0 0 0 10.305 24.957l-10.848 18.715c-1.086 2.172-.816 4.883.813 6.512l15.461 15.461c1.629 1.629 4.339 2.172 6.511.813l18.715-10.848a88.14 88.14 0 0 0 24.957 10.306l5.696 20.89c.542 2.442 2.714 4.067 5.156 4.067h21.973c2.441 0 4.609-1.625 5.152-4.067l5.695-20.89a88.063 88.063 0 0 0 24.957-10.306l18.719 10.848c2.168 1.086 4.879.816 6.508-.813l15.461-15.461c1.629-1.629 2.172-4.34.816-6.512l-10.852-18.715a88.25 88.25 0 0 0 10.309-24.957l20.887-5.695c2.441-.543 4.07-2.715 4.07-5.156V250.64c0-2.168-1.629-4.34-4.07-5.152m-108.504 56.423c-22.242 0-40.145-17.903-40.145-40.146 0-22.246 17.903-40.147 40.145-40.147 22.242 0 40.148 17.901 40.148 40.147 0 22.242-17.906 40.146-40.148 40.146"/></svg></svg>