<?xml version="1.0" encoding="utf-8"?>
<!-- Generator: Adobe Illustrator 15.0.2, SVG Export Plug-In  -->
<!DOCTYPE svg PUBLIC "-//W3C//DTD SVG 1.1//EN" "http://www.w3.org/Graphics/SVG/1.1/DTD/svg11.dtd" [
	<!ENTITY ns_flows "http://ns.adobe.com/Flows/1.0/">
]>
<svg version="1.1"
	 xmlns="http://www.w3.org/2000/svg" xmlns:xlink="http://www.w3.org/1999/xlink" xmlns:a="http://ns.adobe.com/AdobeSVGViewerExtensions/3.0/"
	 x="0px" y="0px" width="407px" height="407px" viewBox="0 0 407 407" enable-background="new 0 0 407 407" xml:space="preserve">
<defs>
</defs>
<g>
	<defs>
		<rect id="SVGID_1_" width="407.43" height="407.429"/>
	</defs>
	<clipPath id="SVGID_2_">
		<use xlink:href="#SVGID_1_"  overflow="visible"/>
	</clipPath>
	<path clip-path="url(#SVGID_2_)" fill="#3677A8" d="M407.43,203.714c0,112.508-91.207,203.715-203.715,203.715S0,316.222,0,203.714
		C0,91.207,91.207,0,203.715,0S407.43,91.207,407.43,203.714"/>
	<path clip-path="url(#SVGID_2_)" fill="#F1F3F7" d="M364.027,49.64H43.402c-12.207,0-21.972,9.766-21.972,21.973v222.703
		c0,12.207,9.765,21.974,21.972,21.974h320.356c12.207,0,21.973-9.767,21.973-21.974V71.613C386,59.406,375.965,49.64,364.027,49.64
		"/>
	<rect x="43.402" y="103.621" clip-path="url(#SVGID_2_)" fill="#FCFCFD" width="320.625" height="189.609"/>
	<path clip-path="url(#SVGID_2_)" fill="#F0582F" d="M364.027,78.121c0,3.894-3.156,7.054-7.051,7.054s-7.055-3.16-7.055-7.054
		c0-3.895,3.16-7.051,7.055-7.051S364.027,74.226,364.027,78.121"/>
	<path clip-path="url(#SVGID_2_)" fill="#FBD303" d="M339.344,78.121c0,3.894-3.156,7.054-7.051,7.054
		c-3.898,0-7.055-3.16-7.055-7.054c0-3.895,3.156-7.051,7.055-7.051C336.188,71.07,339.344,74.226,339.344,78.121"/>
	<path clip-path="url(#SVGID_2_)" fill="#6EB1E1" d="M314.66,78.121c0,3.894-3.156,7.054-7.055,7.054
		c-3.895,0-7.051-3.16-7.051-7.054c0-3.895,3.156-7.051,7.051-7.051C311.504,71.07,314.66,74.226,314.66,78.121"/>
	<path clip-path="url(#SVGID_2_)" fill="#6EB1E1" d="M312.219,245.488l-20.887-5.694c-2.172-8.954-5.699-17.364-10.309-24.957
		l10.852-18.715c1.082-2.172,0.813-4.883-0.816-6.512l-15.461-15.461c-1.625-1.629-4.34-2.172-6.508-0.816l-18.719,10.851
		c-7.594-4.609-16.004-8.137-24.957-10.308l-5.695-20.887c-0.543-2.442-2.715-4.067-5.152-4.067h-21.973
		c-2.442,0-4.614,1.625-5.156,4.067l-5.696,20.887c-8.949,2.171-17.359,5.699-24.957,10.308l-18.715-10.851
		c-2.172-1.082-4.882-0.813-6.511,0.816l-15.461,15.461c-1.629,1.625-2.172,4.34-0.813,6.512l10.848,18.715
		c-4.61,7.593-8.137,16.003-10.305,24.957l-20.89,5.694c-2.442,0.543-4.067,2.716-4.067,5.152v21.973
		c0,2.441,1.625,4.613,4.067,5.156l20.89,5.695c2.168,8.95,5.695,17.359,10.305,24.957l-10.848,18.715
		c-1.086,2.172-0.816,4.883,0.813,6.512l15.461,15.461c1.629,1.629,4.339,2.172,6.511,0.813l18.715-10.848
		c7.598,4.609,16.004,8.138,24.957,10.306l5.696,20.89c0.542,2.442,2.714,4.067,5.156,4.067h21.973c2.441,0,4.609-1.625,5.152-4.067
		l5.695-20.89c8.953-2.168,17.363-5.696,24.957-10.306l18.719,10.848c2.168,1.086,4.879,0.816,6.508-0.813l15.461-15.461
		c1.629-1.629,2.172-4.34,0.816-6.512l-10.852-18.715c4.609-7.598,8.137-16.003,10.309-24.957l20.887-5.695
		c2.441-0.543,4.07-2.715,4.07-5.156V250.64C316.289,248.472,314.66,246.3,312.219,245.488 M203.715,301.911
		c-22.242,0-40.145-17.903-40.145-40.146c0-22.246,17.903-40.147,40.145-40.147c22.242,0,40.148,17.901,40.148,40.147
		C243.863,284.007,225.957,301.911,203.715,301.911"/>
</g>
</svg>
