<?xml version="1.0" encoding="utf-8"?>
<!-- Generator: Adobe Illustrator 15.0.2, SVG Export Plug-In  -->
<!DOCTYPE svg PUBLIC "-//W3C//DTD SVG 1.1//EN" "http://www.w3.org/Graphics/SVG/1.1/DTD/svg11.dtd" [
	<!ENTITY ns_flows "http://ns.adobe.com/Flows/1.0/">
]>
<svg version="1.1"
	 xmlns="http://www.w3.org/2000/svg" xmlns:xlink="http://www.w3.org/1999/xlink" xmlns:a="http://ns.adobe.com/AdobeSVGViewerExtensions/3.0/"
	 x="0px" y="0px" width="168px" height="168px" viewBox="0 0 407 407" enable-background="new 0 0 407 407" xml:space="preserve">
<defs>
</defs>
<g>
	<defs>
		<rect id="SVGID_1_" width="407.43" height="407.429"/>
	</defs>
	<clipPath id="SVGID_2_">
		<use xlink:href="#SVGID_1_"  overflow="visible"/>
	</clipPath>
	<path clip-path="url(#SVGID_2_)" fill="#FBD303" d="M407.43,203.714c0,112.508-91.207,203.715-203.715,203.715S0,316.222,0,203.714
		C0,91.207,91.207,0,203.715,0S407.43,91.207,407.43,203.714"/>
	<path clip-path="url(#SVGID_2_)" fill="#FFFFFF" d="M241.691,54.523H72.426c-4.614,0-8.41,3.797-8.41,8.41v281.024
		c0,4.608,3.796,8.405,8.41,8.405h169.266c4.609,0,8.406-3.797,8.406-8.405V63.203C250.102,58.32,246.301,54.523,241.691,54.523"/>
	<rect x="69.715" y="80.019" clip-path="url(#SVGID_2_)" fill="#6EB1E1" width="174.961" height="235.453"/>
	<path clip-path="url(#SVGID_2_)" fill="#DEDEDF" d="M169.266,66.457h-24.141c-1.086,0-2.172,0.816-2.172,2.172
		c0,1.085,0.813,2.171,2.172,2.171h24.141c1.082,0,2.168-0.816,2.168-2.171C171.164,67.273,170.352,66.457,169.266,66.457"/>
	<path clip-path="url(#SVGID_2_)" fill="#DEDEDF" d="M169.535,333.648c0,6.892-5.586,12.478-12.476,12.478
		c-6.891,0-12.477-5.586-12.477-12.478c0-6.891,5.586-12.477,12.477-12.477C163.949,321.171,169.535,326.757,169.535,333.648"/>
	<path clip-path="url(#SVGID_2_)" fill="#71AC34" d="M369.727,127.761H250.102v126.95h119.625c7.051,0,13.02-5.696,13.02-13.021
		v-100.91C382.746,133.461,377.047,127.761,369.727,127.761"/>
	<rect x="250.102" y="150.004" clip-path="url(#SVGID_2_)" fill="#4F5565" width="132.646" height="41.234"/>
	<rect x="250.102" y="220.804" clip-path="url(#SVGID_2_)" fill="#90D342" width="66.188" height="10.035"/>
	<rect x="337.715" y="220.804" clip-path="url(#SVGID_2_)" fill="#90D342" width="17.906" height="10.035"/>
	<rect x="86.262" y="98.464" clip-path="url(#SVGID_2_)" fill="#5FA7D3" width="141.594" height="13.023"/>
	<rect x="86.262" y="129.39" clip-path="url(#SVGID_2_)" fill="#5FA7D3" width="122.878" height="13.02"/>
	<rect x="86.262" y="160.043" clip-path="url(#SVGID_2_)" fill="#5FA7D3" width="73.508" height="13.02"/>
</g>
</svg>
